# 3ds Max Wavefront OBJ Exporter v0.99 - (c)2007 guruware
# File Created: 27.01.2024 16:38:55

mtllib NoMiddle_end.mtl

#
# object NoMiddle_end
#

v  -0.1122 1.1829 0.1967
v  0.1122 1.1829 0.1967
v  0.1122 1.3320 0.1967
v  -0.1122 1.3320 0.1967
v  -0.1122 0.0000 0.1967
v  -0.1122 0.0000 -0.0623
v  0.1122 0.0000 -0.0623
v  0.1122 0.0000 0.1967
v  -1.7263 1.3320 0.1967
v  -1.7263 1.3320 -0.0623
v  -1.7263 1.1829 -0.0623
v  -1.7263 1.1829 0.1967
v  0.1122 3.4527 0.1967
v  0.1122 3.4527 -0.0623
v  -0.1122 3.4527 -0.0623
v  -0.1122 3.4527 0.1967
v  1.7263 3.0071 0.1967
v  1.7263 3.0071 -0.0623
v  1.7263 3.4527 -0.0623
v  1.7263 3.4527 0.1967
v  -0.1122 3.0071 0.1967
v  0.1122 3.0071 0.1967
v  0.1122 3.3653 -0.1967
v  0.1122 3.0945 -0.1967
v  -0.1122 3.0945 -0.1967
v  -0.1122 3.3653 -0.1967
v  -1.7263 3.4527 0.1967
v  -1.7263 3.4527 -0.0623
v  -1.7263 3.0071 -0.0623
v  -1.7263 3.0071 0.1967
v  1.7263 1.1829 0.1967
v  1.7263 1.1829 -0.0623
v  1.7263 1.3320 -0.0623
v  1.7263 1.3320 0.1967
v  -1.5084 1.1829 0.1967
v  -1.5084 1.3320 0.1967
v  -1.5084 1.3044 -0.1244
v  -0.1122 1.3044 -0.1244
v  -0.1122 1.2106 -0.1244
v  -1.5084 1.2106 -0.1244
v  1.7263 1.2106 -0.1244
v  0.1122 1.2106 -0.1244
v  0.1122 1.3044 -0.1244
v  1.7263 1.3044 -0.1244
v  -1.5084 0.0000 0.1967
v  -1.5084 0.0000 -0.0623
v  1.7263 0.0000 -0.0623
v  1.7263 0.0000 0.1967
v  -1.5084 3.4527 -0.0623
v  -1.5084 3.4527 0.1967
v  -1.5084 3.0071 0.1967
v  1.7263 3.3653 -0.1967
v  1.7263 3.0945 -0.1967
v  -1.5084 3.0945 -0.1967
v  -1.5084 3.3653 -0.1967
v  -1.7263 1.3320 -0.1382
v  -1.5084 1.3320 -0.1382
v  -1.5084 1.1829 -0.1382
v  -1.7263 1.1829 -0.1382
v  -1.7263 0.0000 0.1967
v  -1.7263 0.0000 -0.0623
v  -1.7263 3.0945 -0.1967
v  -1.7263 3.3653 -0.1967
v  -1.5084 3.0071 -0.0623
v  -0.1122 3.0071 -0.0623
v  -0.1122 1.3320 -0.0623
v  -1.5084 1.3320 -0.0623
v  -1.5084 1.1829 -0.0623
v  -0.1122 1.1829 -0.0623
v  0.1122 1.1829 -0.0623
v  0.1122 3.0071 -0.0623
v  0.1122 1.3320 -0.0623
v  -1.7263 3.0071 -0.1382
v  -1.5084 3.0071 -0.1382
v  -1.5084 0.0000 -0.1382
v  -1.7263 0.0000 -0.1382
v  -1.5084 3.4527 -0.1412
v  -1.7263 3.4527 -0.1412
v  -0.1122 3.4527 -0.1412
v  0.1122 3.4527 -0.1412
v  1.7263 3.4527 -0.1412
v  1.7263 3.0071 -0.1412
v  0.1122 3.0071 -0.1412
v  -1.5084 3.0071 -0.1412
v  -0.1122 3.0071 -0.1412
v  -1.7263 3.0071 -0.1412
v  -1.5084 1.3320 -0.1135
v  -1.5084 1.1829 -0.1135
v  -0.1122 1.1829 -0.1135
v  -0.1122 1.3320 -0.1135
v  1.7263 1.1829 -0.1135
v  1.7263 1.3320 -0.1135
v  0.1122 1.1829 -0.1135
v  0.1122 1.3320 -0.1135
# 94 vertices

vn 0.0000 0.0000 1.0000
vn 0.0000 -1.0000 -0.0000
vn -1.0000 0.0000 -0.0000
vn 0.0000 1.0000 -0.0000
vn 1.0000 0.0000 -0.0000
vn 0.0000 0.0000 -1.0000
vn 0.0000 0.5360 -0.8442
vn 0.0000 -0.5360 -0.8442
vn 0.0000 -0.3639 -0.9314
vn 0.0000 0.3639 -0.9314
# 10 vertex normals

vt 0.1890 0.1664 0.0000
vt 0.1769 0.1664 0.0000
vt 0.1769 0.1583 0.0000
vt 0.1890 0.1583 0.0000
vt 0.0688 0.1368 0.0000
vt 0.0829 0.1368 0.0000
vt 0.0829 0.1490 0.0000
vt 0.0688 0.1490 0.0000
vt 0.0304 0.1406 0.0000
vt 0.0444 0.1406 0.0000
vt 0.0444 0.1486 0.0000
vt 0.0304 0.1486 0.0000
vt 0.0679 0.1490 0.0000
vt 0.0539 0.1490 0.0000
vt 0.0539 0.1368 0.0000
vt 0.0679 0.1368 0.0000
vt 0.0767 0.0244 0.0000
vt 0.0767 0.0384 0.0000
vt 0.0526 0.0384 0.0000
vt 0.0526 0.0244 0.0000
vt 0.1890 0.0436 0.0000
vt 0.1890 0.0677 0.0000
vt 0.1769 0.0677 0.0000
vt 0.1769 0.0436 0.0000
vt 0.6119 0.0974 0.0000
vt 0.6113 0.0598 0.0000
vt 0.6425 0.0594 0.0000
vt 0.6430 0.0970 0.0000
vt 0.0304 0.0258 0.0000
vt 0.0444 0.0258 0.0000
vt 0.0444 0.0499 0.0000
vt 0.0304 0.0499 0.0000
vt 0.1754 0.0244 0.0000
vt 0.1754 0.0384 0.0000
vt 0.1673 0.0384 0.0000
vt 0.1673 0.0244 0.0000
vt 0.2646 0.1664 0.0000
vt 0.2646 0.1583 0.0000
vt 0.0895 0.1583 0.0000
vt 0.0895 0.1664 0.0000
vt 0.8399 0.2014 0.0000
vt 0.6460 0.2014 0.0000
vt 0.6460 0.1884 0.0000
vt 0.8399 0.1884 0.0000
vt 0.3907 0.1884 0.0000
vt 0.6148 0.1884 0.0000
vt 0.6148 0.2014 0.0000
vt 0.3907 0.2014 0.0000
vt 0.0688 0.0613 0.0000
vt 0.0829 0.0613 0.0000
vt 0.0829 0.2363 0.0000
vt 0.0688 0.2363 0.0000
vt 0.0679 0.2363 0.0000
vt 0.0539 0.2363 0.0000
vt 0.0539 0.0613 0.0000
vt 0.0679 0.0613 0.0000
vt 0.2646 0.0436 0.0000
vt 0.2646 0.0677 0.0000
vt 0.0895 0.0677 0.0000
vt 0.0895 0.0436 0.0000
vt 0.3877 0.1006 0.0000
vt 0.3872 0.0630 0.0000
vt 0.8364 0.0566 0.0000
vt 0.8369 0.0942 0.0000
vt 0.5512 0.0461 0.0000
vt 0.5508 0.0159 0.0000
vt 0.5715 0.0156 0.0000
vt 0.5719 0.0458 0.0000
vt 0.5812 0.2503 0.0000
vt 0.5812 0.2805 0.0000
vt 0.5605 0.2805 0.0000
vt 0.5605 0.2503 0.0000
vt 0.0688 0.0495 0.0000
vt 0.0829 0.0495 0.0000
vt 0.0539 0.0495 0.0000
vt 0.0679 0.0495 0.0000
vt 0.8664 0.0416 0.0000
vt 0.8045 0.0425 0.0000
vt 0.8041 0.0122 0.0000
vt 0.8660 0.0114 0.0000
vt 0.8666 0.0562 0.0000
vt 0.8671 0.0938 0.0000
vt 0.1890 0.2304 0.0000
vt 0.1769 0.2304 0.0000
vt 0.0444 0.2126 0.0000
vt 0.0304 0.2126 0.0000
vt 0.2394 0.0244 0.0000
vt 0.2394 0.0384 0.0000
vt 0.2636 0.2304 0.0000
vt 0.1881 0.2304 0.0000
vt 0.1881 0.1664 0.0000
vt 0.1900 0.1673 0.0000
vt 0.2655 0.1673 0.0000
vt 0.2655 0.2313 0.0000
vt 0.1750 0.2323 0.0000
vt 0.0876 0.2323 0.0000
vt 0.0876 0.1683 0.0000
vt 0.0178 0.5936 0.0000
vt 0.3438 0.5936 0.0000
vt 0.3438 0.9847 0.0000
vt 0.0178 0.9847 0.0000
vt 0.3439 0.5763 0.0000
vt 0.0179 0.5763 0.0000
vt 0.0179 0.3001 0.0000
vt 0.3439 0.3001 0.0000
vt 0.7731 0.5763 0.0000
vt 0.3963 0.5763 0.0000
vt 0.3963 0.3001 0.0000
vt 0.7731 0.3001 0.0000
vt 0.3962 0.5936 0.0000
vt 0.7730 0.5936 0.0000
vt 0.7730 0.9847 0.0000
vt 0.3962 0.9847 0.0000
vt 0.3870 0.0485 0.0000
vt 0.3865 0.0182 0.0000
vt 0.8138 0.2503 0.0000
vt 0.8138 0.2805 0.0000
vt 0.3962 0.2805 0.0000
vt 0.3962 0.2503 0.0000
vt 0.0496 0.0613 0.0000
vt 0.0496 0.0495 0.0000
vt 0.0496 0.1368 0.0000
vt 0.0496 0.1490 0.0000
vt 0.0496 0.2363 0.0000
vt 0.0767 0.0426 0.0000
vt 0.0720 0.0456 0.0000
vt 0.0573 0.0456 0.0000
vt 0.0526 0.0426 0.0000
vt 0.0836 0.2393 0.0000
vt 0.0836 0.1519 0.0000
vt 0.0879 0.1519 0.0000
vt 0.0879 0.2393 0.0000
vt 0.0877 0.0642 0.0000
vt 0.0879 0.0642 0.0000
vt 0.0879 0.1398 0.0000
vt 0.0836 0.0642 0.0000
vt 0.0836 0.1398 0.0000
vt 0.0487 0.0258 0.0000
vt 0.0517 0.0306 0.0000
vt 0.0517 0.0452 0.0000
vt 0.0487 0.0499 0.0000
vt 0.0485 0.0499 0.0000
vt 0.8673 0.1059 0.0000
vt 0.8371 0.1064 0.0000
vt 0.6432 0.1091 0.0000
vt 0.6120 0.1096 0.0000
vt 0.3879 0.1128 0.0000
vt 0.3870 0.0509 0.0000
vt 0.6111 0.0477 0.0000
vt 0.6423 0.0473 0.0000
vt 0.8362 0.0445 0.0000
vt 0.8664 0.0441 0.0000
vt 0.0485 0.1486 0.0000
vt 0.0485 0.2126 0.0000
vt 0.0485 0.1406 0.0000
vt 0.3962 0.2313 0.0000
vt 0.6288 0.2313 0.0000
vt 0.6288 0.2384 0.0000
vt 0.6288 0.2418 0.0000
vt 0.3962 0.2418 0.0000
vt 0.8138 0.2313 0.0000
vt 0.8138 0.2418 0.0000
vt 0.6496 0.2418 0.0000
vt 0.6496 0.2384 0.0000
vt 0.6496 0.2313 0.0000
vt 0.0870 0.0495 0.0000
vt 0.0870 0.0613 0.0000
vt 0.0877 0.0524 0.0000
vt 0.0879 0.0524 0.0000
vt 0.5877 0.1644 0.0000
vt 0.3938 0.1662 0.0000
vt 0.3937 0.1590 0.0000
vt 0.5876 0.1572 0.0000
vt 0.8429 0.1506 0.0000
vt 0.6490 0.1524 0.0000
vt 0.6489 0.1453 0.0000
vt 0.8428 0.1435 0.0000
vt 0.1754 0.0411 0.0000
vt 0.1739 0.0417 0.0000
vt 0.1688 0.0417 0.0000
vt 0.1673 0.0411 0.0000
vt 0.8430 0.1620 0.0000
vt 0.6188 0.1641 0.0000
vt 0.6188 0.1570 0.0000
vt 0.8429 0.1549 0.0000
vt 0.6178 0.1527 0.0000
vt 0.3937 0.1548 0.0000
vt 0.3936 0.1477 0.0000
vt 0.6178 0.1456 0.0000
vt 0.6457 0.2399 0.0000
vt 0.6327 0.2399 0.0000
vt 0.6460 0.1846 0.0000
vt 0.8399 0.1846 0.0000
vt 0.8399 0.2053 0.0000
vt 0.6460 0.2053 0.0000
vt 0.3907 0.1846 0.0000
vt 0.6148 0.1846 0.0000
vt 0.6148 0.2053 0.0000
vt 0.3907 0.2053 0.0000
vt 0.6709 0.1129 0.0000
vt 0.6710 0.1200 0.0000
vt 0.6399 0.1204 0.0000
vt 0.6398 0.1133 0.0000
vt 0.7106 0.1137 0.0000
vt 0.7106 0.1175 0.0000
vt 0.6794 0.1175 0.0000
vt 0.6794 0.1137 0.0000
vt 0.6046 0.1139 0.0000
vt 0.6357 0.1134 0.0000
vt 0.6358 0.1206 0.0000
vt 0.6047 0.1210 0.0000
vt 0.9042 0.7004 0.0000
vt 0.9042 0.3093 0.0000
vt 0.9566 0.3093 0.0000
vt 0.9566 0.7004 0.0000
vt 0.9043 0.2920 0.0000
vt 0.9043 0.0158 0.0000
vt 0.9567 0.0158 0.0000
vt 0.9567 0.2920 0.0000
# 219 texture coords

o NoMiddle_end
g NoMiddle_end
usemtl 01___Default
s off
f 1/1/1 2/2/1 3/3/1 
f 3/3/1 4/4/1 1/1/1 
f 5/5/2 6/6/2 7/7/2 
f 7/7/2 8/8/2 5/5/2 
f 9/9/3 10/10/3 11/11/3 
f 11/11/3 12/12/3 9/9/3 
f 13/13/4 14/14/4 15/15/4 
f 15/15/4 16/16/4 13/13/4 
f 17/17/5 18/18/5 19/19/5 
f 19/19/5 20/20/5 17/17/5 
f 16/21/1 21/22/1 22/23/1 
f 22/23/1 13/24/1 16/21/1 
f 23/25/6 24/26/6 25/27/6 
f 25/27/6 26/28/6 23/25/6 
f 27/29/3 28/30/3 29/31/3 
f 29/31/3 30/32/3 27/29/3 
f 31/33/5 32/34/5 33/35/5 
f 33/35/5 34/36/5 31/33/5 
f 35/37/1 1/1/1 4/4/1 
f 4/4/1 36/38/1 35/37/1 
f 34/39/1 3/3/1 2/2/1 
f 2/2/1 31/40/1 34/39/1 
f 37/41/6 38/42/6 39/43/6 
f 39/43/6 40/44/6 37/41/6 
f 41/45/6 42/46/6 43/47/6 
f 43/47/6 44/48/6 41/45/6 
f 45/49/2 46/50/2 6/6/2 
f 6/6/2 5/5/2 45/49/2 
f 47/51/2 48/52/2 8/8/2 
f 8/8/2 7/7/2 47/51/2 
f 20/53/4 19/54/4 14/14/4 
f 14/14/4 13/13/4 20/53/4 
f 49/55/4 50/56/4 16/16/4 
f 16/16/4 15/15/4 49/55/4 
f 50/57/1 51/58/1 21/22/1 
f 21/22/1 16/21/1 50/57/1 
f 17/59/1 20/60/1 13/24/1 
f 13/24/1 22/23/1 17/59/1 
f 52/61/6 53/62/6 24/26/6 
f 24/26/6 23/25/6 52/61/6 
f 54/63/6 55/64/6 26/28/6 
f 26/28/6 25/27/6 54/63/6 
f 12/65/1 35/66/1 36/67/1 
f 36/67/1 9/68/1 12/65/1 
f 56/69/6 57/70/6 58/71/6 
f 58/71/6 59/72/6 56/69/6 
f 60/73/2 61/74/2 46/50/2 
f 46/50/2 45/49/2 60/73/2 
f 28/75/4 27/76/4 50/56/4 
f 50/56/4 49/55/4 28/75/4 
f 27/77/1 30/78/1 51/79/1 
f 51/79/1 50/80/1 27/77/1 
f 62/81/6 63/82/6 55/64/6 
f 55/64/6 54/63/6 62/81/6 
f 5/83/1 8/84/1 2/2/1 
f 2/2/1 1/1/1 5/83/1 
f 22/23/1 21/22/1 4/4/1 
f 4/4/1 3/3/1 22/23/1 
f 30/32/3 29/31/3 10/10/3 
f 10/10/3 9/9/3 30/32/3 
f 61/85/3 60/86/3 12/12/3 
f 12/12/3 11/11/3 61/85/3 
f 48/87/5 47/88/5 32/34/5 
f 32/34/5 31/33/5 48/87/5 
f 18/18/5 17/17/5 34/36/5 
f 34/36/5 33/35/5 18/18/5 
f 45/89/1 5/90/1 1/91/1 
f 1/92/1 35/93/1 45/94/1 
f 21/22/1 51/58/1 36/38/1 
f 36/38/1 4/4/1 21/22/1 
f 17/59/1 22/23/1 3/3/1 
f 3/3/1 34/39/1 17/59/1 
f 8/95/1 48/96/1 31/97/1 
f 31/40/1 2/2/1 8/84/1 
f 64/98/6 65/99/6 66/100/6 
f 66/100/6 67/101/6 64/98/6 
f 6/102/6 46/103/6 68/104/6 
f 68/104/6 69/105/6 6/102/6 
f 47/106/6 7/107/6 70/108/6 
f 70/108/6 32/109/6 47/106/6 
f 71/110/6 18/111/6 33/112/6 
f 33/112/6 72/113/6 71/110/6 
f 60/114/1 45/115/1 35/66/1 
f 35/66/1 12/65/1 60/114/1 
f 51/79/1 30/78/1 9/68/1 
f 9/68/1 36/67/1 51/79/1 
f 73/116/6 74/117/6 57/70/6 
f 57/70/6 56/69/6 73/116/6 
f 75/118/6 76/119/6 59/72/6 
f 59/72/6 58/71/6 75/118/6 
f 28/75/4 49/55/4 77/120/4 
f 77/120/4 78/121/4 28/75/4 
f 49/55/4 15/15/4 79/122/4 
f 79/122/4 77/120/4 49/55/4 
f 15/15/4 14/14/4 80/123/4 
f 80/123/4 79/122/4 15/15/4 
f 14/14/4 19/54/4 81/124/4 
f 81/124/4 80/123/4 14/14/4 
f 19/19/5 18/18/5 82/125/5 
f 19/19/5 82/125/5 53/126/5 
f 19/19/5 53/126/5 52/127/5 
f 19/19/5 52/127/5 81/128/5 
f 18/129/2 71/130/2 83/131/2 
f 83/131/2 82/132/2 18/129/2 
f 74/133/2 84/134/2 85/135/2 
f 64/136/2 74/133/2 85/135/2 
f 65/137/2 64/136/2 85/135/2 
f 28/30/3 78/138/3 63/139/3 
f 63/139/3 62/140/3 86/141/3 
f 28/30/3 63/139/3 86/141/3 
f 28/30/3 86/141/3 73/142/3 
f 29/31/3 28/30/3 73/142/3 
f 78/143/7 77/144/7 55/64/7 
f 55/64/7 63/82/7 78/143/7 
f 77/144/7 79/145/7 26/28/7 
f 26/28/7 55/64/7 77/144/7 
f 79/145/7 80/146/7 23/25/7 
f 23/25/7 26/28/7 79/145/7 
f 80/146/7 81/147/7 52/61/7 
f 52/61/7 23/25/7 80/146/7 
f 82/148/8 83/149/8 24/26/8 
f 24/26/8 53/62/8 82/148/8 
f 83/149/8 85/150/8 25/27/8 
f 25/27/8 24/26/8 83/149/8 
f 85/150/8 84/151/8 54/63/8 
f 54/63/8 25/27/8 85/150/8 
f 84/151/8 86/152/8 62/81/8 
f 62/81/8 54/63/8 84/151/8 
f 61/85/3 11/11/3 59/153/3 
f 59/153/3 76/154/3 61/85/3 
f 11/11/3 10/10/3 56/155/3 
f 56/155/3 59/153/3 11/11/3 
f 10/10/3 29/31/3 73/142/3 
f 73/142/3 56/155/3 10/10/3 
f 64/156/5 67/157/5 87/158/5 
f 64/156/5 87/158/5 57/159/5 
f 64/156/5 57/159/5 74/160/5 
f 46/161/5 75/162/5 58/163/5 
f 46/161/5 58/163/5 88/164/5 
f 68/165/5 46/161/5 88/164/5 
f 46/50/2 61/74/2 76/166/2 
f 76/166/2 75/167/2 46/50/2 
f 73/168/2 86/169/2 84/134/2 
f 84/134/2 74/133/2 73/168/2 
f 69/170/2 68/171/2 88/172/2 
f 88/172/2 89/173/2 69/170/2 
f 67/174/4 66/175/4 90/176/4 
f 90/176/4 87/177/4 67/174/4 
f 33/35/5 32/34/5 91/178/5 
f 33/35/5 91/178/5 41/179/5 
f 33/35/5 41/179/5 44/180/5 
f 33/35/5 44/180/5 92/181/5 
f 32/182/2 70/183/2 93/184/2 
f 93/184/2 91/185/2 32/182/2 
f 72/186/4 33/187/4 92/188/4 
f 92/188/4 94/189/4 72/186/4 
f 40/190/5 88/164/5 58/163/5 
f 37/191/5 40/190/5 58/163/5 
f 37/191/5 58/163/5 57/159/5 
f 87/158/5 37/191/5 57/159/5 
f 89/192/9 88/193/9 40/44/9 
f 40/44/9 39/43/9 89/192/9 
f 87/194/10 90/195/10 38/42/10 
f 38/42/10 37/41/10 87/194/10 
f 91/196/9 93/197/9 42/46/9 
f 42/46/9 41/45/9 91/196/9 
f 94/198/10 92/199/10 44/48/10 
f 44/48/10 43/47/10 94/198/10 
f 90/200/4 66/201/4 72/202/4 
f 72/202/4 94/203/4 90/200/4 
f 90/195/10 94/198/10 43/47/10 
f 43/47/10 38/42/10 90/195/10 
f 42/46/6 39/43/6 38/42/6 
f 38/42/6 43/47/6 42/46/6 
f 89/204/9 39/205/9 42/206/9 
f 42/206/9 93/207/9 89/204/9 
f 89/208/2 93/209/2 70/210/2 
f 70/210/2 69/211/2 89/208/2 
f 66/212/6 65/213/6 71/214/6 
f 71/214/6 72/215/6 66/212/6 
f 85/135/2 83/131/2 71/130/2 
f 71/130/2 65/137/2 85/135/2 
f 6/216/6 69/217/6 70/218/6 
f 70/218/6 7/219/6 6/216/6 
# 184 faces

