# 3ds Max Wavefront OBJ Exporter v0.99 - (c)2007 guruware
# File Created: 27.01.2024 19:04:17

mtllib armario.mtl

#
# object Box024
#

v  -1.3932 0.0000 -0.5086
v  0.0000 0.0000 -0.5086
v  0.0000 0.0000 0.5086
v  -1.3932 0.0000 0.5086
v  0.0000 2.7979 0.4298
v  0.0000 2.7979 -0.4298
v  -1.3143 2.7979 -0.4298
v  -1.3143 2.7979 0.4298
v  0.0000 0.0652 0.5086
v  -1.3932 0.0652 0.5086
v  1.3932 0.0000 0.5086
v  1.3932 0.0000 -0.5086
v  1.3932 0.0652 -0.5086
v  1.3932 0.0652 0.5086
v  0.0000 0.0652 -0.5086
v  -1.3932 0.0652 -0.5086
v  0.0000 0.0652 0.4298
v  -1.3143 0.0652 0.4298
v  1.3143 0.0652 -0.4298
v  1.3143 0.0652 0.4298
v  0.0000 0.0652 -0.4298
v  -1.3143 0.0652 -0.4298
v  0.0000 2.7404 0.4298
v  -1.3143 2.7404 0.4298
v  1.3143 2.7404 -0.4298
v  1.3143 2.7404 0.4298
v  0.1055 0.2606 -0.5038
v  0.1055 2.5450 -0.5038
v  0.9413 2.5450 -0.5038
v  0.9413 0.2606 -0.5038
v  -1.3143 2.7404 -0.4298
v  0.0000 2.7404 0.5146
v  0.0000 2.7979 0.5146
v  -1.3991 2.7979 0.5146
v  -1.3991 2.7404 0.5146
v  1.3991 2.7404 0.5146
v  1.3991 2.7404 -0.5146
v  1.3991 2.7979 -0.5146
v  1.3991 2.7979 0.5146
v  0.0000 2.7404 -0.5146
v  0.0000 2.7979 -0.5146
v  -1.3991 2.7404 -0.5146
v  -1.3991 2.7979 -0.5146
v  0.0000 2.7404 -0.4298
v  1.3143 2.7979 0.4298
v  1.3143 2.7979 -0.4298
v  -0.9292 0.2606 -0.5038
v  -0.9292 2.5450 -0.5038
v  -0.0934 2.5450 -0.5038
v  -0.0934 0.2606 -0.5038
v  0.0740 0.2291 -0.4298
v  0.9728 0.2291 -0.4298
v  0.0740 2.5765 -0.4298
v  0.9728 2.5765 -0.4298
v  -0.9607 0.2291 -0.4298
v  -0.0619 0.2291 -0.4298
v  -0.9607 2.5765 -0.4298
v  -0.0619 2.5765 -0.4298
v  0.0740 0.2291 -0.4691
v  0.9728 0.2291 -0.4691
v  0.0740 2.5765 -0.4691
v  0.9728 2.5765 -0.4691
v  -0.9607 0.2291 -0.4691
v  -0.0619 0.2291 -0.4691
v  -0.9607 2.5765 -0.4691
v  -0.0619 2.5765 -0.4691
# 66 vertices

vn 0.0000 -1.0000 -0.0000
vn 0.0000 1.0000 -0.0000
vn 0.0000 0.0000 1.0000
vn 1.0000 0.0000 -0.0000
vn 0.0000 0.0000 -1.0000
vn -1.0000 0.0000 -0.0000
vn 0.0000 -0.7406 -0.6720
vn -0.7406 0.0000 -0.6720
vn 0.0000 0.7406 -0.6720
vn 0.7406 0.0000 -0.6720
# 10 vertex normals

vt 0.6111 0.0650 0.0000
vt 0.6111 0.2707 0.0000
vt 0.4609 0.2707 0.0000
vt 0.4609 0.0650 0.0000
vt 0.1774 0.6900 0.0000
vt 0.0505 0.6900 0.0000
vt 0.0505 0.4959 0.0000
vt 0.1774 0.4959 0.0000
vt 0.6460 0.2707 0.0000
vt 0.6364 0.2707 0.0000
vt 0.6364 0.0650 0.0000
vt 0.6460 0.0650 0.0000
vt 0.9199 0.1420 0.0000
vt 0.9199 0.2922 0.0000
vt 0.9103 0.2922 0.0000
vt 0.9103 0.1420 0.0000
vt 0.2298 0.0203 0.0000
vt 0.2298 0.0300 0.0000
vt 0.0234 0.0297 0.0000
vt 0.0235 0.0200 0.0000
vt 0.9462 0.1420 0.0000
vt 0.9462 0.2922 0.0000
vt 0.9366 0.2922 0.0000
vt 0.9366 0.1420 0.0000
vt 0.9800 0.2707 0.0000
vt 0.9684 0.2707 0.0000
vt 0.9684 0.0766 0.0000
vt 0.9800 0.0650 0.0000
vt 0.9800 0.4763 0.0000
vt 0.8298 0.4763 0.0000
vt 0.8415 0.4647 0.0000
vt 0.9684 0.4647 0.0000
vt 0.2298 0.0421 0.0000
vt 0.0350 0.0410 0.0000
vt 0.8298 0.0650 0.0000
vt 0.8415 0.0766 0.0000
vt 0.7854 0.5104 0.0000
vt 0.7854 0.9053 0.0000
vt 0.5914 0.9053 0.0000
vt 0.5914 0.5104 0.0000
vt 0.6724 0.0650 0.0000
vt 0.7993 0.0650 0.0000
vt 0.7993 0.4599 0.0000
vt 0.6724 0.4599 0.0000
vt 0.2133 0.0718 0.0000
vt 0.2114 0.4094 0.0000
vt 0.0884 0.4083 0.0000
vt 0.0903 0.0708 0.0000
vt 0.4384 0.5104 0.0000
vt 0.5653 0.5104 0.0000
vt 0.5653 0.9053 0.0000
vt 0.4384 0.9053 0.0000
vt 0.6675 0.0200 0.0000
vt 0.6675 0.0285 0.0000
vt 0.4609 0.0285 0.0000
vt 0.4609 0.0200 0.0000
vt 0.8684 0.1420 0.0000
vt 0.8684 0.2940 0.0000
vt 0.8599 0.2940 0.0000
vt 0.8599 0.1420 0.0000
vt 0.2272 0.4509 0.0000
vt 0.2273 0.4594 0.0000
vt 0.0200 0.4591 0.0000
vt 0.0200 0.4506 0.0000
vt 0.8936 0.1420 0.0000
vt 0.8936 0.2940 0.0000
vt 0.8851 0.2940 0.0000
vt 0.8851 0.1420 0.0000
vt 0.2395 0.4959 0.0000
vt 0.2395 0.6900 0.0000
vt 0.2270 0.6900 0.0000
vt 0.2270 0.4834 0.0000
vt 0.2395 0.8840 0.0000
vt 0.3664 0.8840 0.0000
vt 0.3789 0.8965 0.0000
vt 0.2270 0.8965 0.0000
vt 0.0324 0.4378 0.0000
vt 0.2272 0.4385 0.0000
vt 0.3664 0.4959 0.0000
vt 0.3789 0.4834 0.0000
vt 0.1774 0.8840 0.0000
vt 0.1899 0.6900 0.0000
vt 0.1899 0.8965 0.0000
vt 0.0380 0.4834 0.0000
vt 0.1899 0.4834 0.0000
vt 0.0380 0.6900 0.0000
vt 0.0505 0.8840 0.0000
vt 0.0380 0.8965 0.0000
vt 0.6111 0.4763 0.0000
vt 0.4609 0.4763 0.0000
vt 0.6460 0.4763 0.0000
vt 0.6364 0.4763 0.0000
vt 0.4361 0.0205 0.0000
vt 0.4362 0.0302 0.0000
vt 0.4246 0.0420 0.0000
vt 0.9794 0.5104 0.0000
vt 0.9794 0.9053 0.0000
vt 0.3668 0.0719 0.0000
vt 0.3650 0.4092 0.0000
vt 0.2420 0.4084 0.0000
vt 0.2438 0.0711 0.0000
vt 0.8740 0.0200 0.0000
vt 0.8740 0.0285 0.0000
vt 0.4345 0.4511 0.0000
vt 0.4345 0.4596 0.0000
vt 0.4221 0.4387 0.0000
vt 0.2192 0.0663 0.0000
vt 0.0845 0.0647 0.0000
vt 0.2172 0.4153 0.0000
vt 0.0825 0.4139 0.0000
vt 0.3728 0.0657 0.0000
vt 0.2380 0.0656 0.0000
vt 0.3708 0.4148 0.0000
vt 0.2360 0.4146 0.0000
vt 0.2177 0.0674 0.0000
vt 0.0856 0.0660 0.0000
vt 0.2161 0.4141 0.0000
vt 0.0840 0.4127 0.0000
vt 0.3712 0.0670 0.0000
vt 0.2391 0.0666 0.0000
vt 0.3696 0.4138 0.0000
vt 0.2375 0.4133 0.0000
# 122 texture coords

o Box024
g Box024
usemtl 01___Default
s off
f 1/1/1 2/2/1 3/3/1 
f 3/3/1 4/4/1 1/1/1 
f 5/5/2 6/6/2 7/7/2 
f 7/7/2 8/8/2 5/5/2 
f 3/9/3 9/10/3 10/11/3 
f 10/11/3 4/12/3 3/9/3 
f 11/13/4 12/14/4 13/15/4 
f 13/15/4 14/16/4 11/13/4 
f 2/17/5 15/18/5 13/19/5 
f 13/19/5 12/20/5 2/17/5 
f 1/21/6 4/22/6 10/23/6 
f 10/23/6 16/24/6 1/21/6 
f 9/25/2 17/26/2 18/27/2 
f 18/27/2 10/28/2 9/25/2 
f 14/29/2 13/30/2 19/31/2 
f 19/31/2 20/32/2 14/29/2 
f 15/18/2 21/33/2 19/34/2 
f 19/34/2 13/19/2 15/18/2 
f 16/35/2 10/28/2 18/27/2 
f 18/27/2 22/36/2 16/35/2 
f 17/37/3 23/38/3 24/39/3 
f 24/39/3 18/40/3 17/37/3 
f 20/41/4 19/42/4 25/43/4 
f 25/43/4 26/44/4 20/41/4 
f 27/45/5 28/46/5 29/47/5 
f 29/47/5 30/48/5 27/45/5 
f 22/49/6 18/50/6 24/51/6 
f 24/51/6 31/52/6 22/49/6 
f 32/53/3 33/54/3 34/55/3 
f 34/55/3 35/56/3 32/53/3 
f 36/57/4 37/58/4 38/59/4 
f 38/59/4 39/60/4 36/57/4 
f 40/61/5 41/62/5 38/63/5 
f 38/63/5 37/64/5 40/61/5 
f 42/65/6 35/66/6 34/67/6 
f 34/67/6 43/68/6 42/65/6 
f 24/69/1 23/70/1 32/71/1 
f 32/71/1 35/72/1 24/69/1 
f 26/73/1 25/74/1 37/75/1 
f 37/75/1 36/76/1 26/73/1 
f 25/77/1 44/78/1 40/61/1 
f 40/61/1 37/64/1 25/77/1 
f 31/79/1 24/69/1 35/72/1 
f 35/72/1 42/80/1 31/79/1 
f 45/81/2 5/5/2 33/82/2 
f 33/82/2 39/83/2 45/81/2 
f 8/8/2 7/7/2 43/84/2 
f 43/84/2 34/85/2 8/8/2 
f 7/7/2 6/6/2 41/86/2 
f 41/86/2 43/84/2 7/7/2 
f 46/87/2 45/81/2 39/83/2 
f 39/83/2 38/88/2 46/87/2 
f 12/89/1 11/90/1 3/3/1 
f 3/3/1 2/2/1 12/89/1 
f 45/81/2 46/87/2 6/6/2 
f 6/6/2 5/5/2 45/81/2 
f 11/91/3 14/92/3 9/10/3 
f 9/10/3 3/9/3 11/91/3 
f 1/93/5 16/94/5 15/18/5 
f 15/18/5 2/17/5 1/93/5 
f 9/25/2 14/29/2 20/32/2 
f 20/32/2 17/26/2 9/25/2 
f 15/18/2 16/94/2 22/95/2 
f 22/95/2 21/33/2 15/18/2 
f 20/96/3 26/97/3 23/38/3 
f 23/38/3 17/37/3 20/96/3 
f 47/98/5 48/99/5 49/100/5 
f 49/100/5 50/101/5 47/98/5 
f 36/102/3 39/103/3 33/54/3 
f 33/54/3 32/53/3 36/102/3 
f 42/104/5 43/105/5 41/62/5 
f 41/62/5 40/61/5 42/104/5 
f 26/73/1 36/76/1 32/71/1 
f 32/71/1 23/70/1 26/73/1 
f 31/106/1 42/104/1 40/61/1 
f 40/61/1 44/78/1 31/106/1 
f 8/8/2 34/85/2 33/82/2 
f 33/82/2 5/5/2 8/8/2 
f 46/87/2 38/88/2 41/86/2 
f 41/86/2 6/6/2 46/87/2 
f 19/34/5 21/33/5 51/107/5 
f 51/107/5 52/108/5 19/34/5 
f 21/33/5 44/78/5 53/109/5 
f 53/109/5 51/107/5 21/33/5 
f 44/78/5 25/77/5 54/110/5 
f 54/110/5 53/109/5 44/78/5 
f 25/77/5 19/34/5 52/108/5 
f 52/108/5 54/110/5 25/77/5 
f 21/33/5 22/95/5 55/111/5 
f 55/111/5 56/112/5 21/33/5 
f 22/95/5 31/106/5 57/113/5 
f 57/113/5 55/111/5 22/95/5 
f 31/106/5 44/78/5 58/114/5 
f 58/114/5 57/113/5 31/106/5 
f 44/78/5 21/33/5 56/112/5 
f 56/112/5 58/114/5 44/78/5 
f 52/108/1 51/107/1 59/115/1 
f 59/115/1 60/116/1 52/108/1 
f 51/107/6 53/109/6 61/117/6 
f 61/117/6 59/115/6 51/107/6 
f 53/109/2 54/110/2 62/118/2 
f 62/118/2 61/117/2 53/109/2 
f 54/110/4 52/108/4 60/116/4 
f 60/116/4 62/118/4 54/110/4 
f 56/112/1 55/111/1 63/119/1 
f 63/119/1 64/120/1 56/112/1 
f 55/111/6 57/113/6 65/121/6 
f 65/121/6 63/119/6 55/111/6 
f 57/113/2 58/114/2 66/122/2 
f 66/122/2 65/121/2 57/113/2 
f 58/114/4 56/112/4 64/120/4 
f 64/120/4 66/122/4 58/114/4 
f 60/116/7 59/115/7 27/45/7 
f 27/45/7 30/48/7 60/116/7 
f 59/115/8 61/117/8 28/46/8 
f 28/46/8 27/45/8 59/115/8 
f 61/117/9 62/118/9 29/47/9 
f 29/47/9 28/46/9 61/117/9 
f 62/118/10 60/116/10 30/48/10 
f 30/48/10 29/47/10 62/118/10 
f 64/120/7 63/119/7 47/98/7 
f 47/98/7 50/101/7 64/120/7 
f 63/119/8 65/121/8 48/99/8 
f 48/99/8 47/98/8 63/119/8 
f 65/121/9 66/122/9 49/100/9 
f 49/100/9 48/99/9 65/121/9 
f 66/122/10 64/120/10 50/101/10 
f 50/101/10 49/100/10 66/122/10 
# 128 faces

