# 3ds Max Wavefront OBJ Exporter v0.99 - (c)2007 guruware
# File Created: 27.01.2024 21:06:53

mtllib mueblelargo.mtl

#
# object Box001
#

v  -22.8326 0.0000 7.7073
v  -22.8326 0.0000 -7.7073
v  22.8326 0.0000 -7.7073
v  22.8326 0.0000 7.7073
v  -22.8326 16.7490 7.7073
v  22.8326 16.7490 7.7073
v  22.8326 16.7490 -7.7073
v  -22.8326 16.7490 -7.7073
# 8 vertices

vn 0.0000 -1.0000 -0.0000
vn 0.0000 1.0000 -0.0000
vn 0.0000 0.0000 1.0000
vn 1.0000 0.0000 -0.0000
vn 0.0000 0.0000 -1.0000
vn -1.0000 0.0000 -0.0000
# 6 vertex normals

vt 0.4334 0.6450 0.0000
vt 0.6188 0.6450 0.0000
vt 0.6188 0.9674 0.0000
vt 0.4334 0.9674 0.0000
vt 0.0907 0.6560 0.0000
vt 0.4131 0.6560 0.0000
vt 0.4131 0.8414 0.0000
vt 0.0907 0.8414 0.0000
vt 0.0316 0.0221 0.0000
vt 0.9822 0.0221 0.0000
vt 0.9822 0.3708 0.0000
vt 0.0316 0.3708 0.0000
vt 0.7655 0.6162 0.0000
vt 0.4253 0.6162 0.0000
vt 0.4253 0.3994 0.0000
vt 0.7655 0.3994 0.0000
vt 0.0907 0.8422 0.0000
vt 0.4131 0.8422 0.0000
vt 0.4131 0.9605 0.0000
vt 0.0907 0.9605 0.0000
vt 0.0643 0.4042 0.0000
vt 0.4045 0.4042 0.0000
vt 0.4045 0.6211 0.0000
vt 0.0643 0.6211 0.0000
# 24 texture coords

o Box001
g Box001
usemtl 01___Default
s 2
f 1/1/1 2/2/1 3/3/1 
f 3/3/1 4/4/1 1/1/1 
s 4
f 5/5/2 6/6/2 7/7/2 
f 7/7/2 8/8/2 5/5/2 
s 8
f 1/9/3 4/10/3 6/11/3 
f 6/11/3 5/12/3 1/9/3 
s 16
f 4/13/4 3/14/4 7/15/4 
f 7/15/4 6/16/4 4/13/4 
s 32
f 3/17/5 2/18/5 8/19/5 
f 8/19/5 7/20/5 3/17/5 
s 64
f 2/21/6 1/22/6 5/23/6 
f 5/23/6 8/24/6 2/21/6 
# 12 faces

