# 3ds Max Wavefront OBJ Exporter v0.99 - (c)2007 guruware
# File Created: 27.01.2024 20:56:24

mtllib tele.mtl

#
# object Box001
#

v  -21.7770 0.0000 11.5860
v  -14.4240 5.5306 -12.4865
v  29.0048 5.5306 -12.4865
v  36.3579 0.0000 11.5860
v  -21.7770 43.7259 11.5860
v  36.3579 43.7259 11.5860
v  29.0048 38.1953 -12.4865
v  -14.4240 38.1953 -12.4865
v  -18.8384 3.4201 8.7142
v  33.4193 3.4201 8.7142
v  33.4193 40.3058 8.7142
v  -18.8384 40.3058 8.7142
# 12 vertices

vn 0.0000 -0.9746 -0.2239
vn 0.0000 0.9746 -0.2239
vn 0.0000 0.0000 1.0000
vn 0.9422 0.0000 -0.3350
vn 0.0000 0.0000 -1.0000
vn -0.9422 0.0000 -0.3350
vn 0.0000 0.6431 0.7658
vn -0.6431 0.0000 0.7658
vn 0.0000 -0.6431 0.7658
vn 0.6431 0.0000 0.7658
# 10 vertex normals

vt 0.8391 0.0389 0.0000
vt 0.8018 0.1484 0.0000
vt 0.5780 0.1496 0.0000
vt 0.5395 0.0405 0.0000
vt 0.8411 0.4023 0.0000
vt 0.5414 0.4039 0.0000
vt 0.5787 0.2943 0.0000
vt 0.8026 0.2931 0.0000
vt 0.0681 0.5635 0.0000
vt 0.6831 0.5635 0.0000
vt 0.6831 0.9353 0.0000
vt 0.0681 0.9353 0.0000
vt 0.4647 0.1258 0.0000
vt 0.4657 0.3194 0.0000
vt 0.9148 0.1233 0.0000
vt 0.9159 0.3170 0.0000
vt 0.0288 0.5242 0.0000
vt 0.7224 0.5242 0.0000
vt 0.7224 0.9746 0.0000
vt 0.0288 0.9746 0.0000
# 20 texture coords

o Box001
g Box001
usemtl 01___Default
s 2
f 1/1/1 2/2/1 3/3/1 
f 3/3/1 4/4/1 1/1/1 
s 4
f 5/5/2 6/6/2 7/7/2 
f 7/7/2 8/8/2 5/5/2 
s 8
f 9/9/3 10/10/3 11/11/3 
f 11/11/3 12/12/3 9/9/3 
s 16
f 4/13/4 3/3/4 7/7/4 
f 7/7/4 6/14/4 4/13/4 
s 32
f 3/3/5 2/2/5 8/8/5 
f 8/8/5 7/7/5 3/3/5 
s 64
f 2/2/6 1/15/6 5/16/6 
f 5/16/6 8/8/6 2/2/6 
s off
f 1/17/7 4/18/7 10/10/7 
f 10/10/7 9/9/7 1/17/7 
f 4/18/8 6/19/8 11/11/8 
f 11/11/8 10/10/8 4/18/8 
f 6/19/9 5/20/9 12/12/9 
f 12/12/9 11/11/9 6/19/9 
f 5/20/10 1/17/10 9/9/10 
f 9/9/10 12/12/10 5/20/10 
# 20 faces

